<?xml version="1.0" standalone="no"?>
<!DOCTYPE svg PUBLIC "-//W3C//DTD SVG 20010904//EN"
 "http://www.w3.org/TR/2001/REC-SVG-20010904/DTD/svg10.dtd">
<svg version="1.0" xmlns="http://www.w3.org/2000/svg"
 width="512.000000pt" height="512.000000pt" viewBox="0 0 512.000000 512.000000"
 preserveAspectRatio="xMidYMid meet">
<metadata>
Created by potrace 1.11, written by Peter Selinger 2001-2013
</metadata>
<g transform="translate(0.000000,512.000000) scale(0.100000,-0.100000)"
fill="#000000" stroke="none">
<path d="M0 2560 l0 -2560 2560 0 2560 0 0 2560 0 2560 -2560 0 -2560 0 0
-2560z m1787 1043 c-5 -740 -4 -730 -73 -881 -40 -87 -133 -186 -208 -221
-164 -76 -427 -61 -556 30 -55 39 -131 111 -172 162 l-30 37 87 100 c48 55 89
100 90 100 2 0 41 -37 87 -83 94 -94 141 -117 240 -117 125 0 208 70 244 205
11 39 14 189 14 693 l0 642 141 0 141 0 -5 -667z m767 9 c103 -363 191 -664
195 -671 6 -8 306 983 393 1297 l9 32 117 0 117 0 194 -659 c107 -363 197
-665 201 -671 3 -6 93 289 198 656 105 366 193 668 195 670 2 2 66 0 143 -4
l140 -7 -243 -785 c-133 -432 -259 -836 -278 -897 l-36 -113 -119 0 -119 0
-19 63 c-10 34 -99 325 -198 646 -163 534 -179 581 -190 555 -6 -16 -96 -307
-200 -646 l-188 -618 -121 0 -120 0 -274 893 c-151 490 -277 898 -279 905 -3
9 30 12 145 12 l149 0 188 -658z m-1534 -2139 c7 -16 35 -77 61 -136 26 -59
50 -108 54 -108 4 0 28 49 54 108 72 163 72 163 96 163 22 0 23 -5 34 -147 6
-82 13 -165 15 -185 4 -34 2 -38 -18 -38 -22 0 -23 4 -30 113 -4 62 -10 126
-15 142 -8 29 -10 26 -54 -67 -25 -53 -48 -106 -52 -117 -11 -34 -50 -27 -66
12 -7 17 -31 70 -52 117 -38 82 -40 84 -48 55 -5 -16 -11 -80 -15 -142 -7
-107 -8 -113 -29 -113 -20 0 -21 4 -18 63 2 34 8 109 13 166 6 58 10 113 10
123 0 30 44 23 60 -9z m3056 -63 c47 0 54 -2 54 -20 0 -18 -7 -20 -55 -20
l-55 0 0 -89 c0 -103 8 -115 70 -109 32 3 40 0 40 -13 0 -20 -46 -31 -91 -22
-54 11 -64 39 -67 204 l-4 147 24 4 c21 3 23 -1 26 -39 l3 -43 55 0z m-2504
-21 c24 -13 38 -71 38 -165 l0 -81 -58 -6 c-64 -7 -123 5 -142 28 -18 21 -17
83 2 101 20 20 84 34 120 27 26 -5 28 -3 28 24 0 41 -17 53 -77 53 -39 0 -53
4 -53 14 0 25 98 28 142 5z m271 10 c57 -15 70 -44 75 -165 l5 -104 -27 0 -26
0 0 102 c0 123 -9 138 -82 138 l-48 0 0 -120 0 -120 -25 0 -26 0 3 133 3 132
45 6 c25 3 50 7 55 7 6 1 27 -3 48 -9z m319 -10 c24 -13 38 -71 38 -165 l0
-81 -58 -6 c-64 -7 -123 5 -142 28 -18 21 -17 83 2 101 20 20 84 34 120 27 26
-5 28 -3 28 24 0 41 -17 53 -77 53 -39 0 -53 4 -53 14 0 25 98 28 142 5z m331
5 c15 -5 17 -19 17 -122 0 -125 -10 -186 -33 -209 -35 -35 -177 -38 -177 -4 0
15 9 17 60 13 70 -5 100 12 100 59 0 26 -1 27 -32 18 -39 -11 -98 3 -122 30
-25 28 -37 89 -26 132 22 81 105 113 213 83z m249 5 c41 -11 61 -38 72 -101
l7 -38 -96 0 c-86 0 -95 -2 -95 -19 0 -10 10 -31 21 -45 20 -25 27 -27 80 -24
49 2 59 0 59 -13 0 -38 -130 -29 -170 11 -29 29 -43 93 -30 138 14 49 30 69
71 86 41 18 36 18 81 5z m324 -10 c6 -5 30 -2 58 6 57 17 97 11 127 -21 20
-21 23 -37 27 -134 l5 -110 -27 0 -26 0 0 101 c0 122 -7 139 -60 139 -70 0
-69 2 -63 -126 l6 -114 -27 0 -26 0 0 104 c0 123 -7 136 -76 136 l-44 0 0
-120 0 -120 -25 0 -26 0 3 133 3 132 45 6 c50 7 110 2 126 -12z m446 10 c41
-11 61 -38 72 -101 l7 -38 -96 0 c-86 0 -95 -2 -95 -19 0 -10 10 -31 21 -45
20 -25 27 -27 80 -24 49 2 59 0 59 -13 0 -38 -130 -29 -170 11 -29 29 -43 93
-30 138 14 49 30 69 71 86 41 18 36 18 81 5z m301 0 c57 -15 70 -44 75 -165
l5 -104 -27 0 -26 0 0 102 c0 123 -9 138 -82 138 l-48 0 0 -120 0 -120 -25 0
-26 0 3 133 3 132 45 6 c25 3 50 7 55 7 6 1 27 -3 48 -9z"/>
<path d="M1452 1248 c-7 -7 -12 -21 -12 -33 0 -33 20 -45 72 -45 l48 0 0 45 0
45 -48 0 c-26 0 -53 -5 -60 -12z"/>
<path d="M2042 1248 c-7 -7 -12 -21 -12 -33 0 -33 20 -45 72 -45 l48 0 0 45 0
45 -48 0 c-26 0 -53 -5 -60 -12z"/>
<path d="M2341 1344 c-30 -38 -29 -113 2 -142 14 -13 36 -22 54 -22 61 0 63 4
63 101 l0 89 -49 0 c-42 0 -53 -4 -70 -26z"/>
<path d="M2650 1350 c-38 -38 -27 -50 50 -50 61 0 70 2 70 18 0 48 -82 70
-120 32z"/>
<path d="M3420 1350 c-38 -38 -27 -50 50 -50 61 0 70 2 70 18 0 48 -82 70
-120 32z"/>
</g>
</svg>
